<?xml version="1.0" standalone="no"?>
<!DOCTYPE svg PUBLIC "-//W3C//DTD SVG 20010904//EN"
 "http://www.w3.org/TR/2001/REC-SVG-20010904/DTD/svg10.dtd">
<svg version="1.0" xmlns="http://www.w3.org/2000/svg"
 width="180.000000pt" height="180.000000pt" viewBox="0 0 180.000000 180.000000"
 preserveAspectRatio="xMidYMid meet">

<g transform="translate(0.000000,180.000000) scale(0.100000,-0.100000)"
fill="#171717" stroke="none">
<path d="M810 1794 c-136 -17 -287 -70 -397 -140 -75 -47 -220 -192 -267 -267
-94 -146 -140 -308 -140 -487 0 -179 46 -341 140 -487 47 -75 192 -220 267
-267 146 -94 308 -140 487 -140 179 0 341 46 487 140 75 47 220 192 267 267
94 146 140 308 140 487 0 179 -46 341 -140 487 -47 75 -192 220 -267 267 -77
49 -197 100 -283 119 -73 17 -234 28 -294 21z m-150 -649 c16 -8 34 -24 40
-35 11 -20 12 -19 51 12 49 39 136 51 187 24 60 -31 72 -74 72 -256 l0 -160
30 0 c28 0 30 -2 30 -40 l0 -40 -120 0 -120 0 0 39 c0 36 3 40 28 43 l27 3 3
125 c4 149 -2 186 -29 201 -35 18 -87 2 -109 -34 -17 -27 -20 -51 -20 -164 l0
-133 30 0 c28 0 30 -2 30 -40 l0 -40 -120 0 -120 0 0 39 c0 36 3 40 28 43 l27
3 3 125 c4 149 -2 186 -29 201 -35 18 -87 2 -109 -34 -17 -27 -20 -51 -20
-164 l0 -133 30 0 c28 0 30 -2 30 -40 l0 -40 -120 0 -120 0 0 39 c0 36 3 40
28 43 l27 3 0 160 0 160 -27 3 c-26 3 -28 7 -28 48 l0 45 83 -3 c77 -3 82 -4
85 -26 3 -21 5 -22 20 -9 52 47 145 62 202 32z m794 1 c53 -22 76 -60 76 -126
0 -50 -4 -61 -34 -97 -37 -42 -92 -65 -188 -79 -54 -7 -59 -18 -31 -65 30 -51
114 -62 187 -24 15 8 30 15 32 15 7 0 34 -59 34 -73 0 -26 -96 -59 -172 -59
-150 0 -228 84 -228 247 0 135 60 232 165 266 36 12 125 9 159 -5z"/>
<path d="M1294 1043 c-24 -26 -52 -98 -42 -109 12 -11 99 9 131 30 35 23 47
67 26 92 -6 8 -29 14 -51 14 -29 0 -45 -7 -64 -27z"/>
</g>
</svg>
