<?xml version="1.0" standalone="no"?>
<!DOCTYPE svg PUBLIC "-//W3C//DTD SVG 20010904//EN"
 "http://www.w3.org/TR/2001/REC-SVG-20010904/DTD/svg10.dtd">
<svg version="1.0" xmlns="http://www.w3.org/2000/svg"
 width="512.000000pt" height="512.000000pt" viewBox="0 0 512.000000 512.000000"
 preserveAspectRatio="xMidYMid meet">

<g transform="translate(0.000000,512.000000) scale(0.100000,-0.100000)"
fill="#202020" stroke="none">
<path d="M413 5106 c-191 -46 -353 -209 -398 -397 -13 -56 -15 -324 -15 -2149
0 -2298 -4 -2148 62 -2274 48 -90 147 -185 238 -228 41 -20 99 -41 128 -47 37
-8 663 -11 2135 -11 2288 0 2141 -4 2269 61 130 66 247 220 277 367 16 75 16
4189 0 4264 -30 147 -147 301 -277 367 -128 65 21 61 -2277 60 -1651 -1 -2101
-3 -2142 -13z m1935 -1373 l-3 -958 -957 -3 -958 -2 0 931 0 931 29 29 29 29
931 0 931 0 -2 -957z m2313 928 l29 -29 0 -931 0 -931 -957 2 -958 3 -3 958
-2 957 931 0 931 0 29 -29z m-2313 -3273 l2 -958 -931 0 -931 0 -29 29 -29 29
0 931 0 931 958 -2 957 -3 3 -957z m2342 31 l0 -931 -29 -29 -29 -29 -931 0
-931 0 0 953 c0 525 3 957 7 960 3 4 435 7 960 7 l953 0 0 -931z"/>
</g>
</svg>
