<?xml version="1.0" standalone="no"?>
<!DOCTYPE svg PUBLIC "-//W3C//DTD SVG 20010904//EN"
 "http://www.w3.org/TR/2001/REC-SVG-20010904/DTD/svg10.dtd">
<svg version="1.0" xmlns="http://www.w3.org/2000/svg"
 width="512.000000pt" height="512.000000pt" viewBox="0 0 512.000000 512.000000"
 preserveAspectRatio="xMidYMid meet">

<g transform="translate(0.000000,512.000000) scale(0.100000,-0.100000)"
fill="#202020" stroke="none">
<path d="M361 5104 c-169 -45 -301 -180 -346 -351 -23 -87 -23 -4299 0 -4386
45 -173 178 -307 350 -352 52 -13 309 -15 2195 -15 2330 0 2184 -4 2302 56 71
36 159 123 197 193 65 123 61 -41 61 2311 0 1886 -2 2143 -15 2195 -45 172
-179 305 -352 350 -85 22 -4309 21 -4392 -1z m2039 -1344 l0 -1040 -1040 0
-1040 0 0 974 c0 666 3 984 11 1003 14 37 47 73 84 89 24 11 215 13 1008 14
l977 0 0 -1040z m2304 1026 c18 -8 46 -31 62 -52 l29 -37 3 -989 2 -988 -1040
0 -1040 0 0 1040 0 1040 975 0 c812 0 981 -2 1009 -14z m-2304 -3426 l0 -1040
-989 2 c-982 3 -990 3 -1017 24 -15 11 -37 33 -48 48 -21 27 -21 35 -24 1017
l-2 989 1040 0 1040 0 0 -1040z m2398 52 l-3 -989 -29 -37 c-53 -70 8 -66
-1071 -66 l-975 0 0 1040 0 1040 1040 0 1040 0 -2 -988z"/>
</g>
</svg>
