<?xml version="1.0" standalone="no"?>
<!DOCTYPE svg PUBLIC "-//W3C//DTD SVG 20010904//EN"
 "http://www.w3.org/TR/2001/REC-SVG-20010904/DTD/svg10.dtd">
<svg version="1.0" xmlns="http://www.w3.org/2000/svg"
 width="512.000000pt" height="512.000000pt" viewBox="0 0 512.000000 512.000000"
 preserveAspectRatio="xMidYMid meet">

<g transform="translate(0.000000,512.000000) scale(0.100000,-0.100000)"
fill="#202020" stroke="none">
<path d="M2273 4925 c-574 -73 -1083 -336 -1477 -765 -334 -364 -552 -848
-607 -1350 -17 -156 -6 -506 20 -650 120 -666 484 -1220 1046 -1595 289 -192
691 -336 1047 -374 125 -14 391 -14 516 0 796 86 1503 577 1866 1295 118 235
190 463 233 734 25 160 25 519 0 680 -79 505 -301 955 -652 1319 -352 365
-836 615 -1345 696 -146 23 -500 29 -647 10z m1417 -1000 c65 -33 60 72 60
-1367 l0 -1308 -29 -32 -29 -33 -1117 -3 c-1240 -3 -1166 -6 -1199 63 -15 30
-16 163 -14 1328 l3 1295 25 27 c14 15 34 31 45 35 11 5 516 9 1123 9 960 1
1107 -1 1132 -14z"/>
<path d="M1580 3615 l0 -105 120 0 120 0 0 105 0 105 -120 0 -120 0 0 -105z"/>
<path d="M2040 3195 l0 -525 520 0 520 0 0 525 0 525 -520 0 -520 0 0 -525z"/>
<path d="M3300 3615 l0 -106 118 3 117 3 3 103 3 102 -121 0 -120 0 0 -105z"/>
<path d="M1580 3195 l0 -105 120 0 120 0 0 105 0 105 -120 0 -120 0 0 -105z"/>
<path d="M3300 3195 l0 -105 120 0 120 0 0 105 0 105 -120 0 -120 0 0 -105z"/>
<path d="M1580 2770 l0 -100 120 0 120 0 0 100 0 100 -120 0 -120 0 0 -100z"/>
<path d="M3300 2770 l0 -100 120 0 120 0 0 100 0 100 -120 0 -120 0 0 -100z"/>
<path d="M1580 2345 l0 -106 118 3 117 3 3 103 3 102 -121 0 -120 0 0 -105z"/>
<path d="M2040 1925 l0 -525 520 0 520 0 0 525 0 525 -520 0 -520 0 0 -525z"/>
<path d="M3300 2345 l0 -106 118 3 117 3 3 103 3 102 -121 0 -120 0 0 -105z"/>
<path d="M1580 1925 l0 -105 120 0 120 0 0 105 0 105 -120 0 -120 0 0 -105z"/>
<path d="M3300 1925 l0 -105 120 0 120 0 0 105 0 105 -120 0 -120 0 0 -105z"/>
<path d="M1580 1500 l0 -100 120 0 120 0 0 100 0 100 -120 0 -120 0 0 -100z"/>
<path d="M3300 1500 l0 -100 120 0 120 0 0 100 0 100 -120 0 -120 0 0 -100z"/>
</g>
</svg>
