<?xml version="1.0" standalone="no"?>
<!DOCTYPE svg PUBLIC "-//W3C//DTD SVG 20010904//EN"
 "http://www.w3.org/TR/2001/REC-SVG-20010904/DTD/svg10.dtd">
<svg version="1.0" xmlns="http://www.w3.org/2000/svg"
 width="428.000000pt" height="428.000000pt" viewBox="0 0 428.000000 428.000000"
 preserveAspectRatio="xMidYMid meet">

<g transform="translate(0.000000,428.000000) scale(0.100000,-0.100000)"
fill="#202020" stroke="none">
<path d="M1910 4259 c-408 -42 -811 -212 -1118 -472 -182 -155 -363 -360 -471
-535 -455 -733 -407 -1718 117 -2392 84 -107 241 -270 354 -367 539 -458 1324
-605 2017 -377 310 102 554 251 799 488 209 203 335 372 448 601 154 313 225
658 210 1020 -13 323 -73 567 -206 840 -116 240 -227 390 -437 596 -202 197
-339 296 -566 404 -224 107 -451 170 -701 194 -126 13 -322 12 -446 0z m1036
-1369 l798 -745 -267 -3 -267 -2 0 -640 0 -640 -375 0 -375 0 0 530 0 530
-320 0 -320 0 0 -530 0 -530 -375 0 -375 0 0 640 0 640 -217 0 -218 0 750 750
c412 413 753 749 756 748 4 -2 366 -338 805 -748z"/>
</g>
</svg>
